<svg width="20" height="18" viewBox="0 0 20 18" fill="none" xmlns="http://www.w3.org/2000/svg">
<path d="M4.02613 6.56486C4.00898 6.37886 3.99998 6.19071 3.99998 6C3.99998 2.68629 6.68627 0 9.99998 0C13.3137 0 16 2.68629 16 6C16 6.19071 15.9914 6.37886 15.9738 6.56486C18.0151 7.52271 19.4286 9.59614 19.4286 12C19.4286 15.3137 16.7423 18 13.4286 18C12.154 18 10.972 17.6023 9.99998 16.9243C8.99465 17.6263 7.7976 18.0019 6.57141 18C3.2577 18 0.571411 15.3137 0.571411 12C0.571411 9.59614 1.98484 7.52271 4.02613 6.56486ZM4.44698 8.277C3.79024 8.65164 3.24434 9.19342 2.86474 9.84731C2.48514 10.5012 2.28537 11.2439 2.2857 12C2.2857 14.367 4.20441 16.2857 6.57141 16.2857C7.35227 16.2857 8.08427 16.077 8.71427 15.7123C7.87946 14.6552 7.42638 13.347 7.42855 12C7.42855 11.8093 7.43713 11.6211 7.4547 11.4351C6.09267 10.7951 5.01965 9.66827 4.44698 8.27657V8.277ZM9.14327 11.9391L9.14284 12C9.14284 14.367 11.0616 16.2857 13.4286 16.2857C15.7956 16.2857 17.7143 14.367 17.7143 12C17.7143 10.4057 16.8443 9.01543 15.553 8.277C14.656 10.4614 12.5071 12 9.99998 12C9.71333 12.0002 9.42702 11.9798 9.14327 11.9391ZM9.99998 10.2857C12.367 10.2857 14.2857 8.367 14.2857 6C14.2857 3.633 12.367 1.71429 9.99998 1.71429C7.63298 1.71429 5.71427 3.633 5.71427 6C5.71427 8.367 7.63298 10.2857 9.99998 10.2857Z" fill="black"/>
</svg>
