<svg width="493" height="493" viewBox="0 0 493 493" fill="none" xmlns="http://www.w3.org/2000/svg">
<path opacity="0.04" fill-rule="evenodd" clip-rule="evenodd" d="M9.60278 314.862C8.43541 310.81 7.36921 306.714 6.4071 302.579L304.915 6.96265C309.04 7.96513 313.125 9.07141 317.166 10.2786L9.60278 314.862ZM15.3564 332.336C13.945 328.537 12.6245 324.694 11.3977 320.809L323.094 12.1317C326.966 13.3964 330.796 14.7545 334.582 16.2032L15.3564 332.336ZM22.1538 348.777C20.5227 345.205 18.9744 341.588 17.5114 337.927L340.151 18.4128C343.797 19.9115 347.399 21.4951 350.955 23.1611L22.1538 348.777ZM29.9031 364.276C28.0702 360.912 26.3133 357.501 24.6349 354.045L356.198 25.6935C359.637 27.4055 363.031 29.1956 366.377 31.0613L29.9031 364.276ZM38.5372 378.897C36.5154 375.728 34.5641 372.509 32.6854 369.244L371.318 33.8919C374.565 35.8022 377.764 37.7847 380.913 39.8373L38.5372 378.897ZM48.0089 392.69C45.8074 389.706 43.6715 386.67 41.6034 383.585L385.571 42.949C388.636 45.0468 391.651 47.2121 394.614 49.4426L48.0089 392.69ZM58.2852 405.685C55.9099 402.88 53.5962 400.02 51.3461 397.109L399 52.8225C401.889 55.1005 404.726 57.4419 407.509 59.8443L58.2852 405.685ZM69.3468 417.903C66.8011 415.273 64.3134 412.586 61.8858 409.844L411.633 63.485C414.35 65.9389 417.013 68.4525 419.619 71.0237L69.3468 417.903ZM81.1863 429.351C78.4709 426.895 75.8104 424.379 73.207 421.805L423.483 74.9214C426.032 77.5495 428.522 80.2341 430.952 82.9733L81.1863 429.351ZM93.8067 440.025C90.9201 437.744 88.0857 435.401 85.3056 432.996L434.556 87.1277C436.934 89.9308 439.251 92.7877 441.503 95.6964L93.8067 440.025ZM107.224 449.911C104.162 447.81 101.15 445.642 98.1894 443.409L444.845 100.112C447.049 103.093 449.187 106.126 451.258 109.209L107.224 449.911ZM121.465 458.98C118.22 457.067 115.024 455.081 111.877 453.026L454.328 113.892C456.353 117.059 458.307 120.274 460.188 123.537L121.465 458.98ZM136.571 467.191C133.135 465.476 129.744 463.683 126.401 461.815L462.975 128.501C464.811 131.862 466.571 135.27 468.252 138.723L136.571 467.191ZM152.605 474.486C148.962 472.984 145.362 471.398 141.81 469.729L470.738 143.986C472.372 147.555 473.924 151.17 475.39 154.828L152.605 474.486ZM169.645 480.783C165.776 479.515 161.95 478.153 158.168 476.701L477.55 160.412C478.965 164.208 480.289 168.048 481.519 171.93L169.645 480.783ZM187.807 485.969C183.686 484.963 179.605 483.853 175.568 482.642L483.32 177.87C484.491 181.919 485.561 186.011 486.528 190.142L187.807 485.969ZM207.246 489.892C202.835 489.186 198.464 488.363 194.135 487.427L487.923 196.485C488.817 200.822 489.597 205.202 490.259 209.619L207.246 489.892ZM228.183 492.33C223.432 491.981 218.718 491.497 214.045 490.882L491.184 216.428C491.753 221.106 492.191 225.824 492.494 230.579L228.183 492.33ZM250.945 492.961C249.467 492.987 247.985 493 246.5 493C242.83 493 239.178 492.92 235.547 492.761L492.854 237.947C492.951 240.786 493 243.637 493 246.5C493 248.788 492.969 251.069 492.907 253.343L250.945 492.961ZM276.078 491.244C270.448 491.917 264.76 492.4 259.02 492.688L492.556 261.414C492.214 267.149 491.676 272.832 490.948 278.455L276.078 491.244ZM304.675 486.095C298.259 487.648 291.746 488.949 285.145 489.988L489.604 287.509C488.501 294.099 487.136 300.6 485.52 307.002L304.675 486.095ZM339.374 474.905C331.554 478.088 323.534 480.881 315.338 483.26L482.58 317.638C480.121 325.81 477.249 333.804 473.988 341.594L339.374 474.905ZM393.847 444.132C381.277 453.519 367.782 461.735 353.523 468.618L467.562 355.683C460.54 369.874 452.192 383.291 442.679 395.773L393.847 444.132ZM298.58 5.51197L5.01853 296.23C4.12902 291.888 3.35369 287.504 2.69581 283.082L285.456 3.06083C289.871 3.76176 294.246 4.5799 298.58 5.51197ZM264.494 0.646749C269.251 0.98993 273.97 1.4681 278.649 2.07743L1.77881 276.265C1.21512 271.582 0.782762 266.858 0.485516 262.098L264.494 0.646749ZM241.702 0.0457596C243.298 0.0152992 244.897 0 246.5 0C250.058 0 253.599 0.0753993 257.121 0.224687L0.134529 254.722C0.0450757 251.992 0 249.251 0 246.5C0 244.093 0.0344894 241.695 0.103001 239.305L241.702 0.0457596ZM216.528 1.80376C222.167 1.12023 227.865 0.6271 233.614 0.330997L0.465786 231.221C0.817129 225.476 1.36528 219.784 2.10359 214.151L216.528 1.80376ZM187.865 7.01624C194.296 5.44724 200.825 4.13048 207.442 3.07706L3.46522 205.078C4.58298 198.472 5.96355 191.956 7.59579 185.54L187.865 7.01624ZM153.035 18.3367C160.885 15.1175 168.938 12.2917 177.17 9.8838L10.5684 174.871C13.0569 166.664 15.962 158.637 19.2591 150.817L153.035 18.3367ZM97.7074 49.9556C110.487 40.2654 124.242 31.7931 138.798 24.7116L25.7744 136.64C32.9977 122.155 41.6048 108.482 51.4226 95.792L97.7074 49.9556Z" fill="black"/>
</svg>
