<svg width="20" height="24" viewBox="0 0 20 24" fill="none" xmlns="http://www.w3.org/2000/svg">
<path d="M19.5322 9.94755C19.5322 7.44029 17.7301 5.32781 15.3239 4.87975C15.0799 2.14837 12.7788 0 9.98497 0C7.19499 0 4.89062 2.14965 4.64599 4.87957C2.2539 5.32561 0.4375 7.42839 0.4375 9.94755C0.4375 11.2544 0.927489 12.5009 1.8172 13.458C2.7069 14.4149 3.91467 14.9943 5.21801 15.0895C5.22552 15.0901 5.23284 15.0901 5.24035 15.0902C5.58605 15.5434 6.02532 15.8884 6.54039 16.098C7.1234 16.3352 7.77892 16.3824 8.43626 16.2348C8.72154 16.1707 9.00407 16.072 9.28184 15.9404V23.256C9.28184 23.6669 9.5966 23.9999 9.98497 23.9999C10.3731 23.9999 10.6881 23.6669 10.6881 23.256V15.9528C11.2085 16.1993 11.7413 16.3251 12.261 16.3251C12.6621 16.3249 13.0555 16.25 13.4294 16.098C13.9444 15.8884 14.3833 15.5436 14.7292 15.0908C17.4251 14.9062 19.5322 12.6533 19.5322 9.94755ZM12.8995 14.7954C12.2168 15.0732 11.4077 14.8835 10.6214 14.2611C10.4973 14.1628 10.3435 14.1093 10.1851 14.1093C10.1851 14.1093 9.83171 14.1097 9.79435 14.1086C9.63084 14.1029 9.47081 14.156 9.34172 14.2564C8.94676 14.5634 8.52708 14.7731 8.1281 14.8628C7.74651 14.9483 7.39073 14.9258 7.0703 14.7954C6.49572 14.5616 6.07695 13.9872 5.88872 13.1914C6.57903 12.7533 7.27977 12.6343 7.85454 12.8681C7.88292 12.8796 7.91203 12.8924 7.94096 12.9063C8.153 13.0078 8.40184 12.9964 8.6038 12.8761C8.80595 12.756 8.93449 12.5427 8.94658 12.308C8.97752 11.7048 9.36497 11.1253 10.0245 10.6781C10.6414 11.1403 11.0005 11.7167 11.0241 12.2999C11.0336 12.5361 11.1614 12.7516 11.3637 12.8738C11.5663 12.9957 11.8166 13.0078 12.0299 12.9058C12.0581 12.8924 12.0868 12.8796 12.1152 12.8681C12.6898 12.6343 13.3907 12.7533 14.081 13.1914C13.8928 13.9872 13.474 14.5616 12.8995 14.7954ZM15.4431 13.5412C15.4876 13.357 15.5232 13.1658 15.5486 12.9681C15.5803 12.7234 15.4812 12.4799 15.2877 12.3268C14.3152 11.5569 13.2468 11.2282 12.2646 11.3783C11.9777 10.547 11.3313 9.79594 10.4045 9.24278C10.1926 9.11625 9.92985 9.11021 9.71232 9.22648C8.71513 9.76023 8.01933 10.5185 7.71336 11.3794C6.72899 11.2264 5.65728 11.5548 4.68206 12.3268C4.48852 12.4799 4.38946 12.7234 4.42113 12.9681C4.44659 13.1654 4.48211 13.3562 4.52642 13.5403C2.97204 13.0757 1.84375 11.6274 1.84375 9.94755C1.84375 7.88029 3.52557 6.19829 5.59301 6.19829C6.23552 6.19829 6.87108 6.36492 7.43102 6.67986C7.76939 6.87029 8.19804 6.75017 8.38847 6.41161C8.5789 6.07323 8.45897 5.64458 8.12041 5.45415C7.48906 5.09911 6.78795 4.88158 6.06908 4.81456C6.33678 2.89269 7.9926 1.40625 9.98497 1.40625C12.1656 1.40625 13.9395 3.18035 13.9395 5.36095C13.9395 5.3756 13.9389 5.39025 13.9388 5.4049C13.936 5.42376 13.9336 5.44262 13.9325 5.46202C13.9307 5.49425 13.9318 5.52611 13.9342 5.55742C13.8972 6.31365 13.6476 7.03526 13.2056 7.65562C12.9804 7.97185 13.0542 8.41093 13.3704 8.63633C13.4942 8.72441 13.6366 8.76689 13.7778 8.76689C13.9975 8.76689 14.2138 8.66417 14.3509 8.47172C14.8166 7.81822 15.1242 7.08159 15.2621 6.30486C16.9124 6.70531 18.126 8.19304 18.126 9.94755C18.126 11.6343 16.9995 13.0785 15.4431 13.5412Z" fill="black" stroke="black" stroke-width="0.3"/>
</svg>
